<?xml version="1.0" encoding="utf-8"?>
<!-- Generator: Adobe Illustrator 25.0.0, SVG Export Plug-In . SVG Version: 6.00 Build 0)  -->
<svg version="1.1" id="Laag_1" xmlns="http://www.w3.org/2000/svg" xmlns:xlink="http://www.w3.org/1999/xlink" x="0px" y="0px"
	 viewBox="0 0 30 19.1" style="enable-background:new 0 0 30 19.1;" xml:space="preserve">
<style type="text/css">
	.st0{fill:#FFCB01;}
	.st1{fill:#D80613;}
</style>
<path class="st0" d="M0,0h30v19.1H0V0z"/>
<g>
	<path class="st1" d="M5.6,7.3L4.6,8.5h5.1c0.3,0,0.3,0.1,0.1,0.3C9.7,9,9.5,9.3,9.4,9.5C9.3,9.6,9.2,9.7,9.6,9.7h2.1l0.6-0.8
		c0.4-0.5,0-1.6-1.3-1.6L5.6,7.3L5.6,7.3z"/>
	<path class="st1" d="M4.3,11.4l1.9-2.5h2.3c0.3,0,0.3,0.1,0.1,0.3L8.1,9.8C8,9.9,7.9,10,8.3,10h3.1c-0.3,0.4-1.1,1.4-2.6,1.4H4.3z
		 M15,10l-1,1.4h-2.7l1-1.4H15z M19,9.7h-6.5l1.8-2.4H17l-1,1.4h1.2l1-1.4h2.7L19,9.7z M18.8,10l-1,1.4h-2.7l1-1.4H18.8z M0.5,10.6
		h3.9l-0.2,0.3H0.5V10.6z M0.5,10h4.3l-0.2,0.3H0.5V10z M0.5,11.1H4l-0.2,0.3H0.5V11.1z M29.5,10.9h-3.9l0.2-0.3h3.7V10.9z
		 M29.5,11.4h-4.3l0.2-0.3h4.1V11.4z M26.2,10h3.3v0.3H26L26.2,10z M24.5,7.3l-1.8,2.4h-2.8l1.8-2.4H24.5z M19.7,10
		c0,0-0.2,0.3-0.3,0.4c-0.3,0.5,0,1,1.1,1h4.3l1-1.4L19.7,10L19.7,10z"/>
</g>
</svg>
