<?xml version="1.0" encoding="utf-8"?>
<!-- Generator: Adobe Illustrator 25.0.0, SVG Export Plug-In . SVG Version: 6.00 Build 0)  -->
<svg version="1.1" id="Laag_1" xmlns="http://www.w3.org/2000/svg" xmlns:xlink="http://www.w3.org/1999/xlink" x="0px" y="0px"
	 viewBox="0 0 300 191.4" style="enable-background:new 0 0 300 191.4;" xml:space="preserve">
<style type="text/css">
	.st0{fill:#FFCB01;}
	.st1{fill:#D80613;}
</style>
<path class="st0" d="M0,0h300v191.4H0V0z"/>
<g>
	<path class="st1" d="M55.7,72.9l-9.3,12.6h50.6c2.6,0,2.5,1,1.3,2.7c-1.3,1.7-3.4,4.7-4.7,6.5c-0.7,0.9-1.8,2.5,2.1,2.5h20.7
		l6.1-8.3c3.8-5.2,0.3-15.9-13.3-15.9L55.7,72.9L55.7,72.9z"/>
	<path class="st1" d="M42.7,114l18.7-25.4h23.2c2.6,0,2.5,1,1.3,2.7l-4.7,6.4c-0.7,0.9-1.8,2.5,2.1,2.5h31c-2.6,3.5-11,13.8-26,13.8
		H42.7z M149.6,100.2L139.4,114h-26.7l10.1-13.8H149.6z M190.5,97.1h-65.3L143,72.9h26.7l-10.2,13.9h11.9l10.2-13.9h26.7L190.5,97.1
		z M188.2,100.2L178,114h-26.7l10.1-13.8H188.2z M4.6,105.7h39.3l-2.1,2.9H4.6V105.7z M4.6,100.2h43.3l-2.2,2.9H4.6V100.2z
		 M4.6,111.1h35.3l-2.1,2.9H4.6V111.1z M295.4,108.6h-39.2l2.2-2.9h37V108.6z M295.4,114h-43.2l2.1-2.9h41V114z M262.4,100.2h33v2.9
		h-35.2L262.4,100.2z M245.3,72.9l-17.9,24.2h-28.3L217,72.9H245.3z M196.8,100.2c0,0-1.9,2.7-2.9,3.9c-3.3,4.5-0.4,9.8,10.5,9.8
		h42.9l10.1-13.8L196.8,100.2L196.8,100.2z"/>
</g>
</svg>
