<?xml version="1.0" encoding="utf-8"?>
<!-- Generator: Adobe Illustrator 25.0.0, SVG Export Plug-In . SVG Version: 6.00 Build 0)  -->
<svg version="1.1"
	 id="svg2" inkscape:version="0.91 r13725" sodipodi:docname="DPD logo (2015).svg" xmlns:cc="http://creativecommons.org/ns#" xmlns:dc="http://purl.org/dc/elements/1.1/" xmlns:inkscape="http://www.inkscape.org/namespaces/inkscape" xmlns:rdf="http://www.w3.org/1999/02/22-rdf-syntax-ns#" xmlns:sodipodi="http://sodipodi.sourceforge.net/DTD/sodipodi-0.dtd" xmlns:svg="http://www.w3.org/2000/svg"
	 xmlns="http://www.w3.org/2000/svg" xmlns:xlink="http://www.w3.org/1999/xlink" x="0px" y="0px" viewBox="0 0 30 12.6"
	 style="enable-background:new 0 0 30 12.6;" xml:space="preserve">
<style type="text/css">
	.st0{fill-rule:evenodd;clip-rule:evenodd;fill:#3F3F42;}
	.st1{fill-rule:evenodd;clip-rule:evenodd;fill:#DC0032;}
	.st2{fill-rule:evenodd;clip-rule:evenodd;fill:#DB0032;}
	.st3{fill-rule:evenodd;clip-rule:evenodd;fill:#DA0032;}
	.st4{fill-rule:evenodd;clip-rule:evenodd;fill:#D90032;}
	.st5{fill-rule:evenodd;clip-rule:evenodd;fill:#D80032;}
	.st6{fill-rule:evenodd;clip-rule:evenodd;fill:#D70032;}
	.st7{fill-rule:evenodd;clip-rule:evenodd;fill:#D60032;}
	.st8{fill-rule:evenodd;clip-rule:evenodd;fill:#D50032;}
	.st9{fill-rule:evenodd;clip-rule:evenodd;fill:#D40032;}
	.st10{fill-rule:evenodd;clip-rule:evenodd;fill:#D30032;}
	.st11{fill-rule:evenodd;clip-rule:evenodd;fill:#D20032;}
	.st12{fill-rule:evenodd;clip-rule:evenodd;fill:#D10032;}
	.st13{fill-rule:evenodd;clip-rule:evenodd;fill:#D00032;}
	.st14{fill-rule:evenodd;clip-rule:evenodd;fill:#CF0032;}
	.st15{fill-rule:evenodd;clip-rule:evenodd;fill:#CE0032;}
	.st16{fill-rule:evenodd;clip-rule:evenodd;fill:#CD0032;}
	.st17{fill-rule:evenodd;clip-rule:evenodd;fill:#CC0032;}
	.st18{fill-rule:evenodd;clip-rule:evenodd;fill:#CB0032;}
	.st19{fill-rule:evenodd;clip-rule:evenodd;fill:#CA0032;}
	.st20{fill-rule:evenodd;clip-rule:evenodd;fill:#C90032;}
	.st21{fill-rule:evenodd;clip-rule:evenodd;fill:#C80033;}
	.st22{fill-rule:evenodd;clip-rule:evenodd;fill:#C70033;}
	.st23{fill-rule:evenodd;clip-rule:evenodd;fill:#C60033;}
	.st24{fill-rule:evenodd;clip-rule:evenodd;fill:#C50033;}
	.st25{fill-rule:evenodd;clip-rule:evenodd;fill:#C40033;}
	.st26{fill-rule:evenodd;clip-rule:evenodd;fill:#C30033;}
	.st27{fill-rule:evenodd;clip-rule:evenodd;fill:#C20033;}
	.st28{fill-rule:evenodd;clip-rule:evenodd;fill:#C10033;}
	.st29{fill-rule:evenodd;clip-rule:evenodd;fill:#C00033;}
	.st30{fill-rule:evenodd;clip-rule:evenodd;fill:#BF0033;}
	.st31{fill-rule:evenodd;clip-rule:evenodd;fill:#BE0033;}
	.st32{fill-rule:evenodd;clip-rule:evenodd;fill:#BD0033;}
	.st33{fill-rule:evenodd;clip-rule:evenodd;fill:#BC0033;}
	.st34{fill-rule:evenodd;clip-rule:evenodd;fill:#BB0033;}
</style>
<sodipodi:namedview  bordercolor="#666666" borderopacity="1" gridtolerance="10" guidetolerance="10" id="namedview207" inkscape:current-layer="svg2" inkscape:cx="88.582677" inkscape:cy="37.204724" inkscape:document-units="mm" inkscape:pageopacity="0" inkscape:pageshadow="2" inkscape:window-height="480" inkscape:window-maximized="0" inkscape:window-width="640" inkscape:window-x="0" inkscape:window-y="0" inkscape:zoom="1.7215556" objecttolerance="10" pagecolor="#ffffff" showgrid="false">
	</sodipodi:namedview>
<path id="path7" inkscape:connector-curvature="0" class="st0" d="M18.3,9.6c-0.6,0.2-1.3,0.2-1.9,0.2c-1.6,0-2.7-0.8-2.7-2.4
	c0-1.5,1-2.4,2.4-2.4c0.3,0,0.7,0,0.9,0.1V3.1h1.3V9.6z M17.1,6.3c-0.2-0.1-0.5-0.1-0.8-0.1c-0.8,0-1.3,0.5-1.3,1.3
	c0,0.9,0.5,1.4,1.4,1.4c0.2,0,0.4,0,0.6-0.1V6.3z M28.6,9.6c-0.6,0.2-1.3,0.2-1.9,0.2C25.1,9.9,24,9,24,7.5c0-1.5,1-2.4,2.4-2.4
	c0.3,0,0.7,0,0.9,0.1V3.1h1.3V9.6z M27.4,6.3c-0.2-0.1-0.5-0.1-0.8-0.1c-0.8,0-1.3,0.5-1.3,1.3c0,0.9,0.6,1.4,1.5,1.4
	c0.2,0,0.4,0,0.6-0.1V6.3z M20.3,6.3c0.2-0.1,0.5-0.1,0.8-0.1c0.8,0,1.3,0.4,1.3,1.2c0,0.9-0.6,1.4-1.4,1.4v1.1H21
	c1.6,0,2.6-0.9,2.6-2.5c0-1.5-1-2.3-2.6-2.3c-0.8,0-1.5,0.2-2,0.4v6.2h1.3L20.3,6.3z"/>
<path id="path9" inkscape:connector-curvature="0" class="st1" d="M9.4,2.2L9.4,2.2L9.4,2.2L9.4,2.2z"/>
<path id="path11" inkscape:connector-curvature="0" class="st1" d="M9.1,2.1l0.2,0.2l0.1-0.1L9.1,2.1z"/>
<path id="path13" inkscape:connector-curvature="0" class="st1" d="M8.8,1.9l0.4,0.5l0.1-0.1L9.2,2.1C9.2,2.1,8.8,1.9,8.8,1.9z"/>
<path id="path15" inkscape:connector-curvature="0" class="st1" d="M8.5,1.7l0.6,0.7l0.1-0.1L8.9,1.9C8.9,1.9,8.5,1.7,8.5,1.7z"/>
<path id="path17" inkscape:connector-curvature="0" class="st1" d="M8.2,1.6L9,2.5l0.1-0.1L8.5,1.8L8.2,1.6z M9.7,3.2L9.7,3.2v0.2
	C9.7,3.4,9.7,3.2,9.7,3.2z"/>
<path id="path19" inkscape:connector-curvature="0" class="st1" d="M7.8,1.4l1,1.2L9,2.5L8.2,1.6L7.8,1.4z M9.6,3.2L9.5,3.3l0.2,0.2
	L9.6,3.2L9.6,3.2L9.6,3.2z"/>
<path id="path21" inkscape:connector-curvature="0" class="st1" d="M7.5,1.2l1.2,1.4l0.2-0.1l-1-1.1C7.9,1.4,7.5,1.2,7.5,1.2z
	 M9.5,3.3L9.4,3.4l0.3,0.4V3.5C9.7,3.5,9.5,3.3,9.5,3.3z"/>
<path id="path23" inkscape:connector-curvature="0" class="st1" d="M7.2,1.1l1.4,1.6l0.1-0.1L7.6,1.3C7.6,1.3,7.2,1.1,7.2,1.1z
	 M9.4,3.4L9.3,3.5L9.7,4V3.7C9.7,3.7,9.4,3.4,9.4,3.4z"/>
<path id="path25" inkscape:connector-curvature="0" class="st1" d="M6.9,0.9l1.6,1.9l0.1-0.1L7.3,1.1C7.3,1.1,6.9,0.9,6.9,0.9z
	 M9.3,3.4L9.2,3.5l0.5,0.6V3.9C9.7,3.9,9.3,3.4,9.3,3.4z"/>
<path id="path27" inkscape:connector-curvature="0" class="st1" d="M6.6,0.7l1.8,2.1l0.1-0.1L7,0.9C7,0.9,6.6,0.7,6.6,0.7z M9.2,3.5
	L9,3.6l0.7,0.8V4.1L9.2,3.5z"/>
<path id="path29" inkscape:connector-curvature="0" class="st1" d="M6.3,0.6l2,2.3l0.1-0.1l-1.8-2L6.3,0.6z M9.1,3.6L8.9,3.7
	l0.8,0.9V4.3C9.7,4.3,9.1,3.6,9.1,3.6z"/>
<path id="path31" inkscape:connector-curvature="0" class="st1" d="M5.9,0.4L8.2,3l0.1-0.1l-2-2.3L5.9,0.4z M9,3.6L8.8,3.7l0.9,1
	V4.5L9,3.6z"/>
<path id="path33" inkscape:connector-curvature="0" class="st1" d="M5.6,0.2L8,3l0.2-0.1L6,0.4L5.6,0.2z M8.8,3.7L8.7,3.8l1,1.2V4.7
	C9.7,4.7,8.8,3.7,8.8,3.7z"/>
<path id="path35" inkscape:connector-curvature="0" class="st1" d="M5.3,0.1l2.6,3L8.1,3L5.7,0.3C5.7,0.3,5.3,0.1,5.3,0.1z M8.7,3.8
	L8.6,3.8l1.1,1.3V4.9C9.7,4.9,8.7,3.8,8.7,3.8z"/>
<path id="path37" inkscape:connector-curvature="0" class="st1" d="M5-0.1l2.8,3.3L8,3.1l-2.6-3L5-0.1z M8.6,3.8L8.5,3.9l1.2,1.4
	V5.1C9.7,5.1,8.6,3.8,8.6,3.8z"/>
<path id="path39" inkscape:connector-curvature="0" class="st1" d="M4.7-0.3l3,3.5l0.1-0.1L5.1-0.1L4.7-0.3z M8.5,3.9L8.4,4l1.3,1.6
	V5.3C9.7,5.3,8.5,3.9,8.5,3.9z"/>
<path id="path41" inkscape:connector-curvature="0" class="st1" d="M4.4-0.5l3.2,3.7l0.1-0.1l-3-3.5L4.4-0.5L4.4-0.5z M8.4,4L8.2,4
	l1.5,1.7V5.5L8.4,4z"/>
<path id="path43" inkscape:connector-curvature="0" class="st1" d="M4.2-0.5L4.2-0.5l3.3,3.9l0.1-0.1L4.5-0.4l-0.1,0
	C4.3-0.5,4.2-0.5,4.2-0.5z M8.3,4L8.1,4.1l1.6,1.8V5.7C9.7,5.7,8.3,4,8.3,4z"/>
<path id="path45" inkscape:connector-curvature="0" class="st1" d="M4.2-0.5c-0.1,0-0.1,0-0.2,0l3.3,3.9l0.2-0.1L4.2-0.5
	C4.2-0.5,4.2-0.5,4.2-0.5z M8.2,4.1L8,4.2l1.7,2V5.9C9.7,5.9,8.2,4.1,8.2,4.1z"/>
<path id="path47" inkscape:connector-curvature="0" class="st1" d="M4.1-0.5C4-0.5,4-0.5,4.1-0.5L3.9-0.4l3.4,3.9l0.1-0.1
	C7.4,3.4,4.1-0.5,4.1-0.5z M8,4.2L7.9,4.2l1.8,2.1V6.1L8,4.2z"/>
<path id="path49" inkscape:connector-curvature="0" class="st1" d="M3.9-0.4L3.8-0.4l3.4,3.9l0.1-0.1C7.3,3.5,3.9-0.4,3.9-0.4z
	 M7.9,4.2L7.8,4.3l1.9,2.2V6.3C9.7,6.3,7.9,4.2,7.9,4.2z"/>
<path id="path51" inkscape:connector-curvature="0" class="st1" d="M3.8-0.4L3.7-0.3L7,3.6l0.1-0.1C7.2,3.5,3.8-0.4,3.8-0.4z
	 M7.8,4.3L7.7,4.4l2,2.4V6.5C9.7,6.5,7.8,4.3,7.8,4.3z"/>
<path id="path53" inkscape:connector-curvature="0" class="st1" d="M3.7-0.3L3.6-0.2l3.4,3.9L7,3.6C7,3.6,3.7-0.3,3.7-0.3z M7.7,4.4
	L7.6,4.4l2.1,2.5V6.7L7.7,4.4z"/>
<path id="path55" inkscape:connector-curvature="0" class="st1" d="M3.6-0.2L3.4-0.2l3.4,3.9l0.1-0.1C6.9,3.7,3.6-0.2,3.6-0.2z
	 M7.6,4.4L7.4,4.5l2.3,2.6V6.9C9.7,6.9,7.6,4.4,7.6,4.4z"/>
<path id="path57" inkscape:connector-curvature="0" class="st1" d="M3.5-0.2L3.3-0.1l3.4,3.9l0.1-0.1C6.8,3.7,3.5-0.2,3.5-0.2z
	 M7.5,4.5L7.3,4.6l2.4,2.8V7.1C9.7,7.1,7.5,4.5,7.5,4.5z"/>
<path id="path59" inkscape:connector-curvature="0" class="st1" d="M3.3-0.1L3.2,0l3.4,3.9l0.1-0.1C6.7,3.8,3.3-0.1,3.3-0.1z
	 M7.4,4.6L7.2,4.6l2.5,2.9V7.3L7.4,4.6z"/>
<path id="path61" inkscape:connector-curvature="0" class="st1" d="M3.2-0.1L3.1,0l3.4,3.9l0.1-0.1C6.6,3.9,3.2-0.1,3.2-0.1z
	 M7.2,4.6L7.1,4.7l2.6,3V7.5C9.7,7.5,7.2,4.6,7.2,4.6z"/>
<path id="path63" inkscape:connector-curvature="0" class="st1" d="M3.1,0L3,0.1L6.3,4l0.1-0.1L3.1,0z M7.1,4.7L7,4.8l2.7,3.2V7.7
	L7.1,4.7z"/>
<path id="path65" inkscape:connector-curvature="0" class="st1" d="M3,0.1L2.9,0.1l3.4,3.9L6.4,4L3,0.1z M7,4.8L6.9,4.8l2.8,3.3V7.9
	C9.7,7.9,7,4.8,7,4.8z"/>
<path id="path67" inkscape:connector-curvature="0" class="st1" d="M2.9,0.1L2.7,0.2l3.4,3.9l0.1-0.1C6.2,4.1,2.9,0.1,2.9,0.1z
	 M6.9,4.8L6.7,4.9l3,3.4V8.1C9.7,8.1,6.9,4.8,6.9,4.8z"/>
<path id="path69" inkscape:connector-curvature="0" class="st1" d="M2.8,0.2L2.6,0.3L6,4.2l0.1-0.1C6.1,4.1,2.8,0.2,2.8,0.2z
	 M6.8,4.9L6.6,5l3.1,3.6V8.3C9.7,8.3,6.8,4.9,6.8,4.9z"/>
<path id="path71" inkscape:connector-curvature="0" class="st1" d="M2.6,0.2L2.5,0.3l3.4,3.9L6,4.2C6,4.2,2.6,0.2,2.6,0.2z M6.7,4.9
	L6.5,5l3.2,3.7V8.5L6.7,4.9z"/>
<path id="path73" inkscape:connector-curvature="0" class="st1" d="M2.5,0.3L2.4,0.4l3.4,4c0,0,0,0,0.1-0.1l0.1-0.1
	C5.9,4.2,2.5,0.3,2.5,0.3z M6.6,5L6.4,5.1l3.3,3.8c0,0,0-0.1,0-0.1V8.7L6.6,5L6.6,5z"/>
<path id="path75" inkscape:connector-curvature="0" class="st1" d="M2.4,0.4L2.3,0.5l3.5,4.1V4.5c0,0,0-0.1,0.1-0.1L2.4,0.4z
	 M6.4,5.1L6.3,5.1c0,0,0,0,0,0L9.6,9c0-0.1,0.1-0.1,0.1-0.2L6.4,5.1z"/>
<path id="path77" inkscape:connector-curvature="0" class="st1" d="M2.3,0.4L2.1,0.5l3.6,4.2V4.5C5.7,4.5,2.3,0.4,2.3,0.4z M6.1,5.1
	l3.4,4c0,0,0.1-0.1,0.1-0.1L6.3,5.1C6.3,5.2,6.2,5.2,6.1,5.1L6.1,5.1z"/>
<path id="path79" inkscape:connector-curvature="0" class="st1" d="M2.2,0.5L2,0.6l7.4,8.6l0.1-0.1c0,0,0,0,0,0L6.2,5.1h0L5.8,5
	c0,0,0,0-0.1-0.1l0,0c0,0,0-0.1,0-0.1V4.7C5.7,4.7,2.2,0.5,2.2,0.5z"/>
<path id="path81" inkscape:connector-curvature="0" class="st1" d="M2.1,0.6L1.9,0.6l7.4,8.6l0.1-0.1L2.1,0.6z"/>
<path id="path83" inkscape:connector-curvature="0" class="st1" d="M1.9,0.6L1.8,0.7l7.4,8.6l0.1-0.1L1.9,0.6z"/>
<path id="path85" inkscape:connector-curvature="0" class="st1" d="M1.8,0.7L1.7,0.8l7.4,8.6l0.1-0.1L1.8,0.7z"/>
<path id="path87" inkscape:connector-curvature="0" class="st1" d="M1.7,0.8L1.6,0.8l7.4,8.6l0.1-0.1L1.7,0.8z"/>
<path id="path89" inkscape:connector-curvature="0" class="st1" d="M1.6,0.8L1.4,0.9l7.4,8.6L9,9.4L1.6,0.8z"/>
<path id="path91" inkscape:connector-curvature="0" class="st1" d="M1.5,0.9L1.3,1l7.4,8.6l0.1-0.1L1.5,0.9z"/>
<path id="path93" inkscape:connector-curvature="0" class="st1" d="M1.3,0.9L1.2,1l7.4,8.6l0.1-0.1L1.3,0.9z"/>
<path id="path95" inkscape:connector-curvature="0" class="st1" d="M1.2,1L1.1,1.1l7.4,8.6l0.1-0.1L1.2,1z"/>
<path id="path97" inkscape:connector-curvature="0" class="st1" d="M1.1,1.1L1,1.1l7.4,8.6l0.1-0.1L1.1,1.1z"/>
<path id="path99" inkscape:connector-curvature="0" class="st1" d="M1,1.1L0.9,1.2l3.6,4.2l0.1,0.1c0.1,0,0.1,0.1,0.1,0.2v0l3.6,4.2
	l0.1-0.1L1,1.1z"/>
<path id="path101" inkscape:connector-curvature="0" class="st1" d="M0.9,1.2L0.7,1.3l3.4,3.9l0.4,0.2L0.9,1.2z M4.7,5.6
	C4.7,5.6,4.7,5.6,4.7,5.6l0,0.3l3.5,4.1l0.1-0.1C8.3,9.8,4.7,5.6,4.7,5.6z"/>
<path id="path103" inkscape:connector-curvature="0" class="st1" d="M0.8,1.3L0.6,1.3L3.8,5l0.4,0.2C4.2,5.3,0.8,1.3,0.8,1.3z
	 M4.7,5.8V6L8,10l0.1-0.1L4.7,5.8z"/>
<path id="path105" inkscape:connector-curvature="0" class="st1" d="M0.7,1.3L0.5,1.4l3,3.4l0.4,0.2L0.7,1.3z M4.7,6v0.3L7.9,10
	L8.1,10L4.7,6z"/>
<path id="path107" inkscape:connector-curvature="0" class="st1" d="M0.5,1.4L0.4,1.5l2.7,3.2l0.4,0.2L0.5,1.4z M4.7,6.2v0.2
	l3.1,3.7L8,10L4.7,6.2z"/>
<path id="path109" inkscape:connector-curvature="0" class="st1" d="M0.4,1.4L0.3,1.5l2.5,2.9l0.4,0.2C3.2,4.7,0.4,1.4,0.4,1.4z
	 M4.7,6.4v0.2l3,3.5l0.1-0.1L4.7,6.4z"/>
<path id="path111" inkscape:connector-curvature="0" class="st1" d="M0.3,1.5L0.2,1.6l2.3,2.7l0.4,0.2L0.3,1.5z M4.7,6.6v0.3
	l2.9,3.4l0.1-0.1C7.7,10.2,4.7,6.6,4.7,6.6z"/>
<path id="path113" inkscape:connector-curvature="0" class="st1" d="M0.2,1.6L0,1.6l2.1,2.4l0.4,0.2C2.5,4.3,0.2,1.6,0.2,1.6z
	 M4.7,6.8V7l2.8,3.3l0.1-0.1C7.6,10.2,4.7,6.8,4.7,6.8z"/>
<path id="path115" inkscape:connector-curvature="0" class="st1" d="M0.1,1.6l-0.1,0.1l1.9,2.2l0.4,0.2C2.2,4.1,0.1,1.6,0.1,1.6z
	 M4.7,7v0.2l2.7,3.1l0.1-0.1C7.5,10.3,4.7,7,4.7,7z"/>
<path id="path117" inkscape:connector-curvature="0" class="st2" d="M0,1.7l-0.1,0.1l1.6,1.9l0.4,0.2C1.9,3.9,0,1.7,0,1.7z M3.3,5.9
	l0.3,0.4V6.1c0,0,0-0.1-0.1-0.1L3.3,5.9z M4.7,7.2v0.3l2.6,3l0.1-0.1L4.7,7.2z"/>
<path id="path119" inkscape:connector-curvature="0" class="st1" d="M-0.2,1.8l-0.1,0.1l1.4,1.7l0.4,0.2C1.5,3.7-0.2,1.8-0.2,1.8z
	 M3,5.7l0.7,0.8V6.2L3.4,5.9C3.4,5.9,3,5.7,3,5.7z M4.7,7.4v0.2l2.4,2.9l0.1-0.1C7.3,10.4,4.7,7.4,4.7,7.4z"/>
<path id="path121" inkscape:connector-curvature="0" class="st1" d="M-0.3,1.8l-0.1,0.1l1.2,1.4l0.4,0.2C1.2,3.5-0.3,1.8-0.3,1.8z
	 M2.7,5.5l1,1.2V6.4L3.1,5.8C3.1,5.8,2.7,5.5,2.7,5.5z M4.7,7.6v0.2L7,10.6l0.1-0.1C7.2,10.5,4.7,7.6,4.7,7.6z"/>
<path id="path123" inkscape:connector-curvature="0" class="st1" d="M-0.4,1.9L-0.5,2l1,1.2l0.4,0.2C0.9,3.3-0.4,1.9-0.4,1.9z
	 M2.3,5.3l1.3,1.6V6.6L2.8,5.6C2.8,5.6,2.3,5.3,2.3,5.3z M4.7,7.8V8l2.2,2.6L7,10.6L4.7,7.8z"/>
<path id="path125" inkscape:connector-curvature="0" class="st1" d="M-0.5,1.9L-0.7,2l0.8,0.9l0.4,0.2C0.5,3.1-0.5,1.9-0.5,1.9z
	 M2,5.1l1.7,1.9V6.8L2.4,5.4L2,5.1z M4.7,8v0.2l2.1,2.5l0.1-0.1C6.9,10.6,4.7,8,4.7,8z"/>
<path id="path127" inkscape:connector-curvature="0" class="st1" d="M-0.6,2l-0.1,0.1l0.5,0.6L0.2,3L-0.6,2z M1.7,4.9l2,2.3V7
	L2.1,5.2L1.7,4.9z M4.7,8.2v0.2l2,2.3l0.1-0.1L4.7,8.2z"/>
<path id="path129" inkscape:connector-curvature="0" class="st1" d="M-0.7,2.1l-0.1,0.1l0.3,0.4l0.4,0.2C-0.1,2.8-0.7,2.1-0.7,2.1z
	 M1.3,4.8l2.3,2.7V7.2L1.8,5L1.3,4.8z M4.7,8.4v0.2l1.9,2.2l0.1-0.1C6.7,10.7,4.7,8.4,4.7,8.4z"/>
<path id="path131" inkscape:connector-curvature="0" class="st1" d="M-0.9,2.1L-1,2.2l0.1,0.1l0.4,0.2C-0.5,2.6-0.9,2.1-0.9,2.1z
	 M1,4.6l2.7,3.1V7.4L1.4,4.8C1.4,4.8,1,4.6,1,4.6z M4.7,8.6v0.2l1.8,2.1l0.1-0.1C6.6,10.8,4.7,8.6,4.7,8.6z"/>
<path id="path133" inkscape:connector-curvature="0" class="st1" d="M-1,2.2L-1,2.2l0.2,0.2C-0.8,2.4-1,2.2-1,2.2z M0.7,4.4l3,3.5
	V7.6l-2.6-3C1.1,4.6,0.7,4.4,0.7,4.4z M4.7,8.8V9L6.3,11l0.1-0.1L4.7,8.8z"/>
<path id="path135" inkscape:connector-curvature="0" class="st1" d="M0.3,4.2l3.3,3.9V7.8L0.8,4.4L0.3,4.2z M4.7,9v0.2L6.2,11
	l0.1-0.1L4.7,9z"/>
<path id="path137" inkscape:connector-curvature="0" class="st1" d="M0,4l3.7,4.3V8L0.4,4.2L0,4z M4.7,9.2v0.2l1.4,1.7L6.2,11
	L4.7,9.2z"/>
<path id="path139" inkscape:connector-curvature="0" class="st1" d="M-0.3,3.8l4,4.7V8.2L0.1,4C0.1,4-0.3,3.8-0.3,3.8z M4.7,9.4v0.3
	L6,11.2l0.1-0.1C6.1,11.1,4.7,9.4,4.7,9.4z"/>
<path id="path141" inkscape:connector-curvature="0" class="st2" d="M-0.7,3.6l4.4,5.1V8.4l-3.9-4.6L-0.7,3.6z M4.7,9.6v0.2l1.2,1.4
	L6,11.2L4.7,9.6z"/>
<path id="path143" inkscape:connector-curvature="0" class="st3" d="M-1,3.4l4.7,5.5V8.6l-4.3-5L-1,3.4z M4.7,9.8V10l1.1,1.3
	l0.1-0.1L4.7,9.8z"/>
<path id="path145" inkscape:connector-curvature="0" class="st4" d="M-1.3,3.2l5,5.8V8.8l-4.6-5.4C-0.9,3.5-1.3,3.2-1.3,3.2z
	 M4.7,10v0.3l1,1.1l0.1-0.1C5.8,11.3,4.7,10,4.7,10z"/>
<path id="path147" inkscape:connector-curvature="0" class="st5" d="M-1.4,3.2v0.2l5,5.9V9l-4.9-5.7L-1.4,3.2z M4.7,10.2v0.2
	c0,0,0,0.1,0,0.1l0.9,1l0.1-0.1C5.7,11.3,4.7,10.2,4.7,10.2z"/>
<path id="path149" inkscape:connector-curvature="0" class="st6" d="M-1.4,3.3v0.3l5,5.9V9.2L-1.4,3.3z M4.7,10.4
	c0,0.1-0.1,0.1-0.1,0.1l0,0l0.9,1l0.1-0.1C5.6,11.4,4.7,10.4,4.7,10.4z"/>
<path id="path151" inkscape:connector-curvature="0" class="st7" d="M-1.4,3.6v0.2l5,5.9V9.4L-1.4,3.6z M4.6,10.5
	C4.6,10.5,4.6,10.5,4.6,10.5l-0.1,0.1l0.9,1l0.1-0.1L4.6,10.5L4.6,10.5z"/>
<path id="path153" inkscape:connector-curvature="0" class="st8" d="M-1.4,3.7V4l5,5.9V9.6L-1.4,3.7z M4.5,10.5l-0.2,0.1l0.9,1
	l0.1-0.1L4.5,10.5z"/>
<path id="path155" inkscape:connector-curvature="0" class="st9" d="M-1.4,4v0.2l5,5.9V9.8L-1.4,4z M4.4,10.6L4.4,10.6
	c-0.1,0.1-0.1,0.1-0.2,0.1l0.9,1l0.1-0.1L4.4,10.6L4.4,10.6z"/>
<path id="path157" inkscape:connector-curvature="0" class="st10" d="M-1.4,4.1v0.2l5,5.9V10L-1.4,4.1z M4,10.6l1,1.2l0.1-0.1
	l-0.9-1c0,0,0,0-0.1,0h0c0,0-0.1,0-0.1,0L4,10.6L4,10.6z"/>
<path id="path159" inkscape:connector-curvature="0" class="st11" d="M-1.4,4.3v0.3l6.2,7.2L5,11.7l-0.9-1.1l-0.3-0.2
	c-0.1,0-0.1-0.1-0.1-0.2v-0.1L-1.4,4.3z"/>
<path id="path161" inkscape:connector-curvature="0" class="st12" d="M-1.4,4.5v0.2l6.1,7.1l0.1-0.1L-1.4,4.5z"/>
<path id="path163" inkscape:connector-curvature="0" class="st13" d="M-1.4,4.7V5l6,7l0.1-0.1L-1.4,4.7z"/>
<path id="path165" inkscape:connector-curvature="0" class="st14" d="M-1.4,4.9v0.3L4.5,12l0.1-0.1L-1.4,4.9z"/>
<path id="path167" inkscape:connector-curvature="0" class="st15" d="M-1.4,5.1v0.2l5.7,6.7L4.5,12L-1.4,5.1z"/>
<path id="path169" inkscape:connector-curvature="0" class="st16" d="M-1.4,5.3v0.2l5.6,6.6c0,0,0.1,0,0.1,0l0,0L-1.4,5.3z"/>
<path id="path171" inkscape:connector-curvature="0" class="st17" d="M-1.4,5.5v0.3l5.5,6.3c0,0,0.1,0,0.1,0c0,0,0.1,0,0.1,0
	L-1.4,5.5z"/>
<path id="path173" inkscape:connector-curvature="0" class="st18" d="M-1.4,5.7V6l5.2,6L4,12.1c0,0,0.1,0,0.2,0L-1.4,5.7z"/>
<path id="path175" inkscape:connector-curvature="0" class="st19" d="M-1.4,5.9v0.2l4.8,5.6L3.9,12L-1.4,5.9z"/>
<path id="path177" inkscape:connector-curvature="0" class="st20" d="M-1.4,6.1v0.2l4.5,5.2l0.4,0.2L-1.4,6.1z"/>
<path id="path179" inkscape:connector-curvature="0" class="st21" d="M-1.4,6.3v0.2l4.1,4.8l0.4,0.2L-1.4,6.3z"/>
<path id="path181" inkscape:connector-curvature="0" class="st22" d="M-1.4,6.5v0.2l3.8,4.4l0.4,0.2L-1.4,6.5z"/>
<path id="path183" inkscape:connector-curvature="0" class="st23" d="M-1.4,6.7V7l3.5,4l0.4,0.2L-1.4,6.7z"/>
<path id="path185" inkscape:connector-curvature="0" class="st24" d="M-1.4,6.9v0.2l3.1,3.6l0.4,0.2L-1.4,6.9z"/>
<path id="path187" inkscape:connector-curvature="0" class="st25" d="M-1.4,7.1v0.2l2.8,3.2l0.4,0.2C1.9,10.9-1.4,7.1-1.4,7.1z"/>
<path id="path189" inkscape:connector-curvature="0" class="st26" d="M-1.4,7.3v0.2l2.4,2.8l0.4,0.2L-1.4,7.3z"/>
<path id="path191" inkscape:connector-curvature="0" class="st27" d="M-1.4,7.5v0.2l2.1,2.5l0.4,0.2L-1.4,7.5z"/>
<path id="path193" inkscape:connector-curvature="0" class="st28" d="M-1.4,7.7V8L0.4,10l0.4,0.2L-1.4,7.7z"/>
<path id="path195" inkscape:connector-curvature="0" class="st29" d="M-1.4,7.9v0.2l1.4,1.7l0.4,0.2L-1.4,7.9z"/>
<path id="path197" inkscape:connector-curvature="0" class="st30" d="M-1.4,8.1v0.2l1.1,1.3l0.4,0.2L-1.4,8.1z"/>
<path id="path199" inkscape:connector-curvature="0" class="st31" d="M-1.4,8.3v0.3l0.8,0.9l0.4,0.2L-1.4,8.3z"/>
<path id="path201" inkscape:connector-curvature="0" class="st32" d="M-1.4,8.5v0.2l0.4,0.5l0.4,0.2L-1.4,8.5z"/>
<path id="path203" inkscape:connector-curvature="0" class="st33" d="M-1.4,8.7L-1.4,8.7c0,0.2,0.1,0.3,0.2,0.4l0.3,0.2
	C-0.9,9.3-1.4,8.7-1.4,8.7z"/>
<path id="path205" inkscape:connector-curvature="0" class="st34" d="M-1.3,9C-1.3,9-1.2,9.1-1.3,9L-1.3,9z"/>
</svg>
