<?xml version="1.0" encoding="utf-8"?>
<!-- Generator: Adobe Illustrator 25.0.0, SVG Export Plug-In . SVG Version: 6.00 Build 0)  -->
<svg version="1.1" id="Layer_1" xmlns="http://www.w3.org/2000/svg" xmlns:xlink="http://www.w3.org/1999/xlink" x="0px" y="0px"
	 viewBox="0 0 200 197.8" style="enable-background:new 0 0 200 197.8;" xml:space="preserve">
<style type="text/css">
	.st0{fill:none;}
	.st1{fill:#A6ACB2;}
	.st2{fill:url(#SVGID_1_);}
	.st3{fill:#FFFFFF;}
	.st4{fill:#383792;}
</style>
<path class="st0" d="M-50-47.7h300v300H-50V-47.7z"/>
<path class="st1" d="M57.8,28.1c18,0,47,11.4,66.2,22c21.2,11.8,51,35.6,51,52c0,17.4-30.6,40.6-51,52c-18.6,10.2-47,22.2-65.6,22.2
	c-5,0-9-0.8-12-2.4c-14.6-8.2-21.4-43-21.4-71.8c0-14.6,1.8-30,5.2-42.8c4-15.2,9.6-25.2,16.2-29C49.2,28.9,53,28.1,57.8,28.1"/>
<radialGradient id="SVGID_1_" cx="-587.3835" cy="-116.1524" r="2.949" gradientTransform="matrix(33.3288 0 0 -33.3288 19644.0664 -3785.8574)" gradientUnits="userSpaceOnUse">
	<stop  offset="0" style="stop-color:#FFC429"/>
	<stop  offset="1" style="stop-color:#F26F23"/>
</radialGradient>
<path class="st2" d="M170,102.5c0-12.4-23.4-34.2-48.4-48c-29-15.8-61.8-25-72.6-19.2c-12.2,6.8-19,40.8-19,67.2
	c0,26.6,6.4,60.2,19,67.2c11.6,6.4,43-3,72.4-19.4C147,136.5,170,115.7,170,102.5"/>
<path class="st3" d="M137.2,115.1l-0.2-12.6c0-2.8-1-4-3.2-4c-0.8,0-1.8,0.2-2.6,0.8c-1,0.6-1.6,1-2,1.2l-0.2,0.2v14.2
	c0,0,0,0.2-0.2,0.2h-5.6c0,0-0.2,0-0.2-0.2v-20c0-0.4,0.2-0.6,0.6-0.6h5c0,0,0.2,0,0.2,0.2v1.6c0,0,0,0.2,0.2,0.2h0.2l0.2-0.2
	c0.6-0.4,1.6-1,2.2-1.2c1.4-0.6,2.8-0.8,4-0.8c4.6,0,7,2.6,7,7.6v13.4c0,0,0,0.2-0.2,0.2L137.2,115.1 M147.6,115.1
	C147.4,115.1,147.4,115.1,147.6,115.1l-0.2-30.8c0-0.2,0-0.2,0.2-0.2c0.4,0,3.4,2,4.4,3c0.8,0.8,1.2,2,1.2,3v24.6c0,0,0,0.2-0.2,0.2
	h-5.4"/>
<path class="st4" d="M86.2,104.7c0,7.4-4.8,10.8-10.8,10.8s-10.8-3.4-10.8-10.8s4.8-10.8,10.8-10.8S86.2,97.3,86.2,104.7
	 M80.2,104.7c0-4-2-5.6-4.6-5.6c-2.6,0-4.6,1.8-4.6,5.6c0,3.6,2,5.6,4.6,5.6C78.2,110.5,80.2,108.5,80.2,104.7z M114.4,88.7
	c0-0.2,0-0.2-0.2-0.2c-0.4,0-3.6,2-4.4,3c-0.8,0.8-1.2,2-1.2,3v13.4c0,5.8,3.4,7.6,7,7.6c2,0,3.4-0.2,4.2-0.8c0.2,0,0.4-0.2,0.4-0.6
	v-3.8c0-0.2,0-0.2-0.2-0.2s-1.6,0.6-2.4,0.6c-1.8,0-3-0.8-3-3.8v-7.6c0-0.2,0-0.2,0.2-0.2h5c0.2,0,0.2,0,0.2-0.2v-4
	c0-0.4-0.2-0.6-0.6-0.6h-4.6c-0.2,0-0.2,0-0.2-0.2L114.4,88.7 M42.2,95.1c0-0.4,0.4-0.6,0.6-0.6h7.8c7.8,0,11.8,4.6,11.8,10.6
	s-4.4,10.2-11.8,10.2h-2.4c-0.2,0-0.2,0-0.2,0.2v9.8c0,0.2,0,0.2-0.2,0.2c-0.4,0-3.6-2-4.4-3c-0.8-0.8-1.2-2-1.2-3V95.1 M56.6,104.7
	c0-2.6-1.6-5-6-5h-2.4c-0.2,0-0.2,0-0.2,0.2v9.6c0,0.2,0,0.2,0.2,0.2h2.4C55.8,109.7,56.6,106.1,56.6,104.7L56.6,104.7z M103,103.9
	c-1.2-0.8-2.8-1.2-4.2-1.4c-0.2,0-1.2-0.2-1.4-0.4c-1.8-0.4-3.2-0.8-3.2-1.8s1-1.6,2.4-1.6c1.8,0,4.4,0.4,7.2,1.4
	c0.2,0,0.4,0,0.4-0.2v-4c0-0.2-0.2-0.6-0.4-0.6c-1-0.4-4-1.2-6.4-1.2c-2.8,0-5,0.6-6.6,1.8c-1.6,1.2-2.4,2.8-2.4,4.8
	c0,4.6,3.8,5.4,7.4,6.2c0.6,0.2,0.4,0.2,0.6,0.2c1.6,0.4,3.4,0.8,3.4,2c0,0.4-0.2,0.8-0.4,1c-0.4,0.4-1.2,0.6-2.4,0.6
	c-2.2,0-6.6-1-7.8-1.4c-0.2,0-0.2,0.2-0.2,0.2v4c0,0.2,0.2,0.6,0.4,0.6c0,0,3.8,1.2,7.2,1.2c6.2,0,9.4-2.4,9.4-6.8
	C105.4,106.5,104.6,104.9,103,103.9"/>
<path class="st3" d="M66.4,89.1c-0.4,0-0.8-0.2-0.8-0.8v-2.4c0-0.6,0.4-1,1-1h17.8c0.6,0,1,0.4,1,1v2.2c0,0.6-0.2,0.8-0.8,0.8H66.4
	 M82.4,82.7c-0.2,0-0.4,0-0.4-0.2v-0.4c0.6-1.8,2.6-7.4,2.6-7.4c0.2-0.4,0-0.8-0.4-1l-1-0.4H83c-0.2,0-0.4,0-0.4,0.2
	c-0.4,1-0.6,1.6-1,2.6c0,0.2-0.2,0.2-0.4,0.2h-2c-0.2,0-0.2,0-0.4-0.2v-0.4c0.6-1.8,1-3.2,1.8-4.8c0.2-0.2,0.4-0.8,1.2-0.8h0.4
	c0.6,0.2,1.4,0.4,2.2,0.6c0.6,0.2,1.2,0.4,2,0.6c2,0.8,2,2.2,1.6,3.6c-0.2,0.8-1.4,4.2-2.2,6.2c-0.2,0.4-0.2,0.8-0.4,1
	c0,0.2-0.2,0.4-0.6,0.4h-2.4L82.4,82.7z M74.2,82.7c-0.4,0-0.4-0.4-0.4-0.6c0-0.2-0.2-10.6-0.2-12c0-0.2,0-0.4,0.2-0.4
	c0,0,0.2-0.2,0.4-0.2H77c0.2,0,0.2,0,0.4,0.2c0.2,0.2,0.2,0.4,0.2,0.4c0,1.4-0.2,11.8-0.2,12c0,0,0,0.6-0.4,0.6H74.2z M66,82.7
	c-0.4,0-0.4-0.2-0.6-0.4c0-0.2-0.2-0.6-0.4-1c-0.8-2-1.8-5.2-2.2-6.2c-0.4-1.4-0.4-3,1.6-3.6c0.6-0.2,1.4-0.4,2-0.6
	c0.8-0.2,1.6-0.4,2.2-0.6H69c0.6,0,1,0.4,1.2,0.8c0.8,1.6,1.2,3,1.8,4.8v0.4c0,0-0.2,0.2-0.4,0.2h-2c-0.2,0-0.4,0-0.4-0.2
	c-0.4-1-0.6-1.8-1-2.6c0,0-0.2-0.2-0.4-0.2h-0.2l-1,0.4c-0.4,0.2-0.6,0.6-0.4,1c0,0,2,5.6,2.6,7.4v0.4c0,0-0.2,0.2-0.4,0.2
	C68.4,82.7,66,82.7,66,82.7L66,82.7z M75.4,67.5c-0.2,0-0.2,0-0.4-0.2c-0.8-0.6-1.6-1.4-2.2-2.2c0,0-0.2-0.2,0-0.6
	c0.6-1,1.6-1.6,2.4-2.4h0.4c0.8,0.6,1.6,1.4,2.4,2.4c0.2,0.2,0.2,0.4,0,0.6c-0.6,0.8-1.4,1.6-2.2,2.2C75.6,67.5,75.6,67.5,75.4,67.5
	z"/>
</svg>
