<?xml version="1.0" encoding="utf-8"?>
<!-- Generator: Adobe Illustrator 25.0.0, SVG Export Plug-In . SVG Version: 6.00 Build 0)  -->
<svg version="1.1" id="Layer_1" xmlns="http://www.w3.org/2000/svg" xmlns:xlink="http://www.w3.org/1999/xlink" x="0px" y="0px"
	 viewBox="0 0 15 15.2" style="enable-background:new 0 0 15 15.2;" xml:space="preserve">
<style type="text/css">
	.st0{fill:none;}
	.st1{fill:#A6ACB2;}
	.st2{fill:url(#SVGID_1_);}
	.st3{fill:#FFFFFF;}
	.st4{fill:#383792;}
</style>
<g>
	<path class="st0" d="M-7.5-7.4h30v30h-30V-7.4z"/>
	<path class="st1" d="M3.3,0.2c1.8,0,4.7,1.1,6.6,2.2C12,3.6,15,6,15,7.6c0,1.7-3.1,4.1-5.1,5.2C8,13.8,5.2,15,3.3,15
		c-0.5,0-0.9-0.1-1.2-0.2C0.7,14,0,10.5,0,7.6c0-1.5,0.2-3,0.5-4.3c0.4-1.5,1-2.5,1.6-2.9C2.4,0.3,2.8,0.2,3.3,0.2"/>
	
		<radialGradient id="SVGID_1_" cx="-678.9993" cy="-208.7426" r="0.2949" gradientTransform="matrix(33.3288 0 0 -33.3288 22634.4863 -6951.2231)" gradientUnits="userSpaceOnUse">
		<stop  offset="0" style="stop-color:#FFC429"/>
		<stop  offset="1" style="stop-color:#F26F23"/>
	</radialGradient>
	<path class="st2" d="M14.5,7.6c0-1.2-2.3-3.4-4.8-4.8C6.8,1.3,3.5,0.3,2.4,0.9C1.2,1.6,0.5,5,0.5,7.6c0,2.7,0.6,6,1.9,6.7
		c1.2,0.6,4.3-0.3,7.2-1.9C12.2,11,14.5,9,14.5,7.6"/>
	<path class="st3" d="M11.2,8.9l0-1.3c0-0.3-0.1-0.4-0.3-0.4c-0.1,0-0.2,0-0.3,0.1c-0.1,0.1-0.2,0.1-0.2,0.1l0,0v1.4c0,0,0,0,0,0
		H9.8c0,0,0,0,0,0v-2c0,0,0-0.1,0.1-0.1h0.5c0,0,0,0,0,0V7c0,0,0,0,0,0h0l0,0c0.1,0,0.2-0.1,0.2-0.1c0.1-0.1,0.3-0.1,0.4-0.1
		c0.5,0,0.7,0.3,0.7,0.8v1.3c0,0,0,0,0,0L11.2,8.9 M12.3,8.9C12.2,8.9,12.2,8.9,12.3,8.9l0-3.1c0,0,0,0,0,0c0,0,0.3,0.2,0.4,0.3
		c0.1,0.1,0.1,0.2,0.1,0.3v2.5c0,0,0,0,0,0L12.3,8.9"/>
	<path class="st4" d="M6.1,7.9c0,0.7-0.5,1.1-1.1,1.1S4,8.6,4,7.9S4.4,6.8,5,6.8S6.1,7.1,6.1,7.9 M5.5,7.9c0-0.4-0.2-0.6-0.5-0.6
		c-0.3,0-0.5,0.2-0.5,0.6c0,0.4,0.2,0.6,0.5,0.6C5.3,8.4,5.5,8.2,5.5,7.9z M8.9,6.3C8.9,6.2,8.9,6.2,8.9,6.3c-0.1,0-0.4,0.2-0.5,0.3
		C8.4,6.6,8.4,6.7,8.4,6.8v1.3c0,0.6,0.3,0.8,0.7,0.8c0.2,0,0.3,0,0.4-0.1c0,0,0,0,0-0.1V8.4c0,0,0,0,0,0S9.3,8.5,9.3,8.5
		C9.1,8.5,9,8.4,9,8.1V7.3c0,0,0,0,0,0h0.5c0,0,0,0,0,0V6.9c0,0,0-0.1-0.1-0.1H9c0,0,0,0,0,0L8.9,6.3 M1.7,6.9
		C1.7,6.9,1.8,6.8,1.7,6.9l0.8-0.1c0.8,0,1.2,0.5,1.2,1.1s-0.4,1-1.2,1H2.3c0,0,0,0,0,0v1c0,0,0,0,0,0c0,0-0.4-0.2-0.4-0.3
		C1.8,9.6,1.7,9.4,1.7,9.3V6.9 M3.2,7.9c0-0.3-0.2-0.5-0.6-0.5H2.3c0,0,0,0,0,0v1c0,0,0,0,0,0h0.2C3.1,8.4,3.2,8,3.2,7.9L3.2,7.9z
		 M7.8,7.8C7.7,7.7,7.5,7.7,7.4,7.6c0,0-0.1,0-0.1,0c-0.2,0-0.3-0.1-0.3-0.2S7,7.3,7.2,7.3c0.2,0,0.4,0,0.7,0.1c0,0,0,0,0,0V7
		c0,0,0-0.1,0-0.1c-0.1,0-0.4-0.1-0.6-0.1C7,6.8,6.7,6.9,6.6,7C6.4,7.1,6.3,7.3,6.3,7.5c0,0.5,0.4,0.5,0.7,0.6c0.1,0,0,0,0.1,0
		c0.2,0,0.3,0.1,0.3,0.2c0,0,0,0.1,0,0.1c0,0-0.1,0.1-0.2,0.1C7,8.5,6.5,8.4,6.4,8.3c0,0,0,0,0,0v0.4c0,0,0,0.1,0,0.1
		c0,0,0.4,0.1,0.7,0.1c0.6,0,0.9-0.2,0.9-0.7C8,8,8,7.9,7.8,7.8"/>
	<path class="st3" d="M4.1,6.3C4.1,6.3,4.1,6.3,4.1,6.3L4.1,6c0-0.1,0-0.1,0.1-0.1h1.8C6,5.9,6,5.9,6,6v0.2C6,6.3,6,6.3,6,6.3
		L4.1,6.3 M5.7,5.7C5.7,5.7,5.7,5.7,5.7,5.7L5.7,5.7C5.8,5.4,6,4.9,6,4.9c0,0,0-0.1,0-0.1l-0.1,0h0c0,0,0,0,0,0
		c0,0.1-0.1,0.2-0.1,0.3c0,0,0,0,0,0H5.4c0,0,0,0,0,0v0c0.1-0.2,0.1-0.3,0.2-0.5c0,0,0-0.1,0.1-0.1h0c0.1,0,0.1,0,0.2,0.1
		c0.1,0,0.1,0,0.2,0.1c0.2,0.1,0.2,0.2,0.2,0.4c0,0.1-0.1,0.4-0.2,0.6c0,0,0,0.1,0,0.1c0,0,0,0-0.1,0L5.7,5.7L5.7,5.7z M4.9,5.7
		C4.9,5.7,4.9,5.6,4.9,5.7c0-0.1-0.1-1.1-0.1-1.3c0,0,0,0,0,0c0,0,0,0,0,0h0.3c0,0,0,0,0,0s0,0,0,0c0,0.1,0,1.2,0,1.2
		c0,0,0,0.1,0,0.1H4.9z M4.1,5.7C4.1,5.7,4.1,5.6,4.1,5.7C4,5.6,4,5.6,4,5.5C3.9,5.3,3.8,5,3.8,4.9c0-0.1,0-0.3,0.2-0.4
		c0.1,0,0.1,0,0.2-0.1c0.1,0,0.2,0,0.2-0.1h0c0.1,0,0.1,0,0.1,0.1C4.6,4.7,4.6,4.8,4.7,5v0c0,0,0,0,0,0H4.5c0,0,0,0,0,0
		c0-0.1-0.1-0.2-0.1-0.3c0,0,0,0,0,0h0l-0.1,0c0,0-0.1,0.1,0,0.1c0,0,0.2,0.6,0.3,0.7v0c0,0,0,0,0,0C4.3,5.7,4.1,5.7,4.1,5.7
		L4.1,5.7z M5,4.1C5,4.1,5,4.1,5,4.1C4.9,4.1,4.8,4,4.8,3.9c0,0,0,0,0-0.1C4.8,3.7,4.9,3.7,5,3.6h0c0.1,0.1,0.2,0.1,0.2,0.2
		c0,0,0,0,0,0.1C5.2,4,5.2,4.1,5,4.1C5.1,4.1,5.1,4.1,5,4.1z"/>
</g>
</svg>
