<?xml version="1.0" encoding="utf-8"?>
<!-- Generator: Adobe Illustrator 25.0.0, SVG Export Plug-In . SVG Version: 6.00 Build 0)  -->
<svg version="1.1" id="Layer_1" xmlns="http://www.w3.org/2000/svg" xmlns:xlink="http://www.w3.org/1999/xlink" x="0px" y="0px"
	 viewBox="0 0 2500 2473" style="enable-background:new 0 0 2500 2473;" xml:space="preserve">
<style type="text/css">
	.st0{fill:none;}
	.st1{fill:#A6ACB2;}
	.st2{fill:url(#SVGID_1_);}
	.st3{fill:#FFFFFF;}
	.st4{fill:#383792;}
</style>
<path class="st0" d="M1200,1189.8h100v100h-100V1189.8z"/>
<path class="st1" d="M1235.9,1215.1c6,0,15.7,3.8,22.1,7.3c7.1,3.9,17,11.9,17,17.3c0,5.8-10.2,13.5-17,17.3
	c-6.2,3.4-15.7,7.4-21.9,7.4c-1.7,0-3-0.3-4-0.8c-4.9-2.7-7.1-14.3-7.1-23.9c0-4.9,0.6-10,1.7-14.3c1.3-5.1,3.2-8.4,5.4-9.7
	C1233.1,1215.4,1234.3,1215.1,1235.9,1215.1"/>
<radialGradient id="SVGID_1_" cx="563.2715" cy="1021.0898" r="0.983" gradientTransform="matrix(33.3288 0 0 -33.3288 -17534.1016 35265.9453)" gradientUnits="userSpaceOnUse">
	<stop  offset="0" style="stop-color:#FFC429"/>
	<stop  offset="1" style="stop-color:#F26F23"/>
</radialGradient>
<path class="st2" d="M1273.3,1239.9c0-4.1-7.8-11.4-16.1-16c-9.7-5.3-20.6-8.3-24.2-6.4c-4.1,2.3-6.3,13.6-6.3,22.4
	c0,8.9,2.1,20.1,6.3,22.4c3.9,2.1,14.3-1,24.1-6.5C1265.7,1251.2,1273.3,1244.3,1273.3,1239.9"/>
<path class="st3" d="M1262.4,1244.1l-0.1-4.2c0-0.9-0.3-1.3-1.1-1.3c-0.3,0-0.6,0.1-0.9,0.3c-0.3,0.2-0.5,0.3-0.7,0.4l-0.1,0.1v4.7
	c0,0,0,0.1-0.1,0.1h-1.9c0,0-0.1,0-0.1-0.1v-6.7c0-0.1,0.1-0.2,0.2-0.2h1.7c0,0,0.1,0,0.1,0.1v0.5c0,0,0,0.1,0.1,0.1h0.1l0.1-0.1
	c0.2-0.1,0.5-0.3,0.7-0.4c0.5-0.2,0.9-0.3,1.3-0.3c1.5,0,2.3,0.9,2.3,2.5v4.5c0,0,0,0.1-0.1,0.1L1262.4,1244.1 M1265.9,1244.1
	C1265.8,1244.1,1265.8,1244.1,1265.9,1244.1l-0.1-10.3c0-0.1,0-0.1,0.1-0.1c0.1,0,1.1,0.7,1.5,1c0.3,0.3,0.4,0.7,0.4,1v8.2
	c0,0,0,0.1-0.1,0.1L1265.9,1244.1"/>
<path class="st4" d="M1245.4,1240.6c0,2.5-1.6,3.6-3.6,3.6s-3.6-1.1-3.6-3.6s1.6-3.6,3.6-3.6S1245.4,1238.2,1245.4,1240.6
	 M1243.4,1240.6c0-1.3-0.7-1.9-1.5-1.9s-1.5,0.6-1.5,1.9c0,1.2,0.7,1.9,1.5,1.9C1242.7,1242.6,1243.4,1241.9,1243.4,1240.6z
	 M1254.8,1235.3C1254.8,1235.2,1254.8,1235.2,1254.8,1235.3c-0.2-0.1-1.3,0.6-1.5,0.9c-0.3,0.3-0.4,0.7-0.4,1v4.5
	c0,1.9,1.1,2.5,2.3,2.5c0.7,0,1.1-0.1,1.4-0.3c0.1,0,0.1-0.1,0.1-0.2v-1.3c0-0.1,0-0.1-0.1-0.1s-0.5,0.2-0.8,0.2c-0.6,0-1-0.3-1-1.3
	v-2.5c0-0.1,0-0.1,0.1-0.1h1.7c0.1,0,0.1,0,0.1-0.1v-1.3c0-0.1-0.1-0.2-0.2-0.2h-1.5c-0.1,0-0.1,0-0.1-0.1L1254.8,1235.3
	 M1230.7,1237.4c0-0.1,0.1-0.2,0.2-0.2h2.6c2.6,0,3.9,1.5,3.9,3.5s-1.5,3.4-3.9,3.4h-0.8c-0.1,0-0.1,0-0.1,0.1v3.3
	c0,0.1,0,0.1-0.1,0.1c-0.1,0-1.2-0.7-1.5-1c-0.3-0.3-0.4-0.7-0.4-1V1237.4 M1235.5,1240.6c0-0.9-0.5-1.7-2-1.7h-0.8
	c-0.1,0-0.1,0-0.1,0.1v3.2c0,0.1,0,0.1,0.1,0.1h0.8C1235.3,1242.3,1235.5,1241.1,1235.5,1240.6L1235.5,1240.6z M1251,1240.4
	c-0.4-0.3-0.9-0.4-1.4-0.5c-0.1,0-0.4-0.1-0.5-0.1c-0.6-0.1-1.1-0.3-1.1-0.6c0-0.3,0.3-0.5,0.8-0.5c0.6,0,1.5,0.1,2.4,0.5
	c0.1,0,0.1,0,0.1-0.1v-1.3c0-0.1-0.1-0.2-0.1-0.2c-0.3-0.1-1.3-0.4-2.1-0.4c-0.9,0-1.7,0.2-2.2,0.6s-0.8,0.9-0.8,1.6
	c0,1.5,1.3,1.8,2.5,2.1c0.2,0.1,0.1,0.1,0.2,0.1c0.5,0.1,1.1,0.3,1.1,0.7c0,0.1-0.1,0.3-0.1,0.3c-0.1,0.1-0.4,0.2-0.8,0.2
	c-0.7,0-2.2-0.3-2.6-0.5c-0.1,0-0.1,0.1-0.1,0.1v1.3c0,0.1,0.1,0.2,0.1,0.2c0,0,1.3,0.4,2.4,0.4c2.1,0,3.1-0.8,3.1-2.3
	C1251.8,1241.2,1251.5,1240.7,1251,1240.4"/>
<path class="st3" d="M1238.8,1235.4c-0.1,0-0.3-0.1-0.3-0.3v-0.8c0-0.2,0.1-0.3,0.3-0.3h5.9c0.2,0,0.3,0.1,0.3,0.3v0.7
	c0,0.2-0.1,0.3-0.3,0.3L1238.8,1235.4 M1244.1,1233.3c-0.1,0-0.1,0-0.1-0.1v-0.1c0.2-0.6,0.9-2.5,0.9-2.5c0.1-0.1,0-0.3-0.1-0.3
	l-0.3-0.1h-0.1c-0.1,0-0.1,0-0.1,0.1c-0.1,0.3-0.2,0.5-0.3,0.9c0,0.1-0.1,0.1-0.1,0.1h-0.7c-0.1,0-0.1,0-0.1-0.1v-0.1
	c0.2-0.6,0.3-1.1,0.6-1.6c0.1-0.1,0.1-0.3,0.4-0.3h0.1c0.2,0.1,0.5,0.1,0.7,0.2c0.2,0.1,0.4,0.1,0.7,0.2c0.7,0.3,0.7,0.7,0.5,1.2
	c-0.1,0.3-0.5,1.4-0.7,2.1c-0.1,0.1-0.1,0.3-0.1,0.3c0,0.1-0.1,0.1-0.2,0.1L1244.1,1233.3L1244.1,1233.3z M1241.4,1233.3
	c-0.1,0-0.1-0.1-0.1-0.2c0-0.1-0.1-3.5-0.1-4c0-0.1,0-0.1,0.1-0.1c0,0,0.1-0.1,0.1-0.1h0.9c0.1,0,0.1,0,0.1,0.1s0.1,0.1,0.1,0.1
	c0,0.5-0.1,3.9-0.1,4c0,0,0,0.2-0.1,0.2H1241.4z M1238.7,1233.3c-0.1,0-0.1-0.1-0.2-0.1c0-0.1-0.1-0.2-0.1-0.3
	c-0.3-0.7-0.6-1.7-0.7-2.1c-0.1-0.5-0.1-1,0.5-1.2c0.2-0.1,0.5-0.1,0.7-0.2c0.3-0.1,0.5-0.1,0.7-0.2h0.1c0.2,0,0.3,0.1,0.4,0.3
	c0.3,0.5,0.4,1,0.6,1.6v0.1c0,0-0.1,0.1-0.1,0.1h-0.7c-0.1,0-0.1,0-0.1-0.1c-0.1-0.3-0.2-0.6-0.3-0.9c0,0-0.1-0.1-0.1-0.1h-0.1
	l-0.3,0.1c-0.1,0.1-0.2,0.2-0.1,0.3c0,0,0.7,1.9,0.9,2.5v0.1c0,0-0.1,0.1-0.1,0.1C1239.5,1233.3,1238.7,1233.3,1238.7,1233.3
	L1238.7,1233.3z M1241.8,1228.2c-0.1,0-0.1,0-0.1-0.1c-0.3-0.2-0.5-0.5-0.7-0.7c0,0-0.1-0.1,0-0.2c0.2-0.3,0.5-0.5,0.8-0.8h0.1
	c0.3,0.2,0.5,0.5,0.8,0.8c0.1,0.1,0.1,0.1,0,0.2c-0.2,0.3-0.5,0.5-0.7,0.7C1241.9,1228.2,1241.9,1228.2,1241.8,1228.2z"/>
</svg>
